REM DIRINDEX 1\2,1\3
REM DIRNAME folder01,folder02,folder03
TITLE ""
FILE "2000 phrasesTrack13.mp3" MP3
  TRACK 01 AUDIO
    TITLE "2:cjc143_0585"
    INDEX 01 00:00:00
  TRACK 02 AUDIO
    TITLE "0:"
    INDEX 01 00:00:62
  TRACK 03 AUDIO
    TITLE "2:cjc143_0586"
    INDEX 01 00:01:28
  TRACK 04 AUDIO
    TITLE "0:"
    INDEX 01 00:02:42
  TRACK 05 AUDIO
    TITLE "2:cjc143_0587"
    INDEX 01 00:03:14
  TRACK 06 AUDIO
    TITLE "0:"
    INDEX 01 00:04:21
  TRACK 07 AUDIO
    TITLE "2:cjc143_0588"
    INDEX 01 00:04:70
  TRACK 08 AUDIO
    TITLE "0:"
    INDEX 01 00:06:10
  TRACK 09 AUDIO
    TITLE "2:cjc143_0589"
    INDEX 01 00:06:57
  TRACK 10 AUDIO
    TITLE "0:"
    INDEX 01 00:07:74
  TRACK 11 AUDIO
    TITLE "2:cjc143_0590"
    INDEX 01 00:08:48
  TRACK 12 AUDIO
    TITLE "0:"
    INDEX 01 00:09:59
  TRACK 13 AUDIO
    TITLE "2:cjc143_0591"
    INDEX 01 00:10:31
  TRACK 14 AUDIO
    TITLE "0:"
    INDEX 01 00:11:44
  TRACK 15 AUDIO
    TITLE "2:cjc143_0592"
    INDEX 01 00:12:18
  TRACK 16 AUDIO
    TITLE "0:"
    INDEX 01 00:13:30
  TRACK 17 AUDIO
    TITLE "2:cjc143_0593"
    INDEX 01 00:14:07
  TRACK 18 AUDIO
    TITLE "0:"
    INDEX 01 00:15:21
  TRACK 19 AUDIO
    TITLE "2:cjc143_0594"
    INDEX 01 00:15:70
  TRACK 20 AUDIO
    TITLE "0:"
    INDEX 01 00:17:14
  TRACK 21 AUDIO
    TITLE "2:cjc143_0595"
    INDEX 01 00:17:65
  TRACK 22 AUDIO
    TITLE "0:"
    INDEX 01 00:19:16
  TRACK 23 AUDIO
    TITLE "2:cjc143_0596"
    INDEX 01 00:19:67
  TRACK 24 AUDIO
    TITLE "0:"
    INDEX 01 00:21:00
  TRACK 25 AUDIO
    TITLE "2:cjc143_0597"
    INDEX 01 00:21:53
  TRACK 26 AUDIO
    TITLE "0:"
    INDEX 01 00:22:70
  TRACK 27 AUDIO
    TITLE "2:cjc143_0598"
    INDEX 01 00:23:61
  TRACK 28 AUDIO
    TITLE "0:"
    INDEX 01 00:25:07
  TRACK 29 AUDIO
    TITLE "2:cjc143_0599"
    INDEX 01 00:25:56
  TRACK 30 AUDIO
    TITLE "0:"
    INDEX 01 00:26:73
  TRACK 31 AUDIO
    TITLE "2:cjc143_0600"
    INDEX 01 00:27:47
  TRACK 32 AUDIO
    TITLE "0:"
    INDEX 01 00:28:68
  TRACK 33 AUDIO
    TITLE "2:cjc143_0601"
    INDEX 01 00:29:44
  TRACK 34 AUDIO
    TITLE "0:"
    INDEX 01 00:30:59
  TRACK 35 AUDIO
    TITLE "2:cjc143_0602"
    INDEX 01 00:31:35
  TRACK 36 AUDIO
    TITLE "0:"
    INDEX 01 00:32:52
  TRACK 37 AUDIO
    TITLE "2:cjc143_0603"
    INDEX 01 00:33:28
  TRACK 38 AUDIO
    TITLE "0:"
    INDEX 01 00:34:43
  TRACK 39 AUDIO
    TITLE "2:cjc143_0604"
    INDEX 01 00:35:19
  TRACK 40 AUDIO
    TITLE "0:"
    INDEX 01 00:36:44
  TRACK 41 AUDIO
    TITLE "2:cjc143_0605"
    INDEX 01 00:37:20
  TRACK 42 AUDIO
    TITLE "0:"
    INDEX 01 00:38:41
  TRACK 43 AUDIO
    TITLE "2:cjc143_0606"
    INDEX 01 00:39:19
  TRACK 44 AUDIO
    TITLE "0:"
    INDEX 01 00:40:73
  TRACK 45 AUDIO
    TITLE "2:cjc143_0607"
    INDEX 01 00:41:42
  TRACK 46 AUDIO
    TITLE "0:"
    INDEX 01 00:43:01
  TRACK 47 AUDIO
    TITLE "2:cjc143_0608"
    INDEX 01 00:43:48
  TRACK 48 AUDIO
    TITLE "0:"
    INDEX 01 00:45:16
  TRACK 49 AUDIO
    TITLE "2:cjc143_0609"
    INDEX 01 00:45:65
  TRACK 50 AUDIO
    TITLE "0:"
    INDEX 01 00:47:32
  TRACK 51 AUDIO
    TITLE "2:cjc143_0610"
    INDEX 01 00:48:04
  TRACK 52 AUDIO
    TITLE "0:"
    INDEX 01 00:49:63
  TRACK 53 AUDIO
    TITLE "2:cjc143_0611"
    INDEX 01 00:50:33
  TRACK 54 AUDIO
    TITLE "0:"
    INDEX 01 00:51:60
  TRACK 55 AUDIO
    TITLE "2:cjc143_0612"
    INDEX 01 00:52:28
  TRACK 56 AUDIO
    TITLE "0:"
    INDEX 01 00:53:74
  TRACK 57 AUDIO
    TITLE "2:cjc143_0613"
    INDEX 01 00:54:44
  TRACK 58 AUDIO
    TITLE "0:"
    INDEX 01 00:55:51
  TRACK 59 AUDIO
    TITLE "2:cjc143_0614"
    INDEX 01 00:56:25
  TRACK 60 AUDIO
    TITLE "0:"
    INDEX 01 00:57:46
  TRACK 61 AUDIO
    TITLE "2:cjc143_0615"
    INDEX 01 00:58:20
  TRACK 62 AUDIO
    TITLE "0:"
    INDEX 01 00:59:43
  TRACK 63 AUDIO
    TITLE "2:cjc143_0616"
    INDEX 01 01:00:13
  TRACK 64 AUDIO
    TITLE "0:"
    INDEX 01 01:01:31
  TRACK 65 AUDIO
    TITLE "2:cjc143_0617"
    INDEX 01 01:02:06
  TRACK 66 AUDIO
    TITLE "0:"
    INDEX 01 01:03:22
  TRACK 67 AUDIO
    TITLE "2:cjc143_0618"
    INDEX 01 01:04:00
  TRACK 68 AUDIO
    TITLE "0:"
    INDEX 01 01:05:17
  TRACK 69 AUDIO
    TITLE "2:cjc143_0619"
    INDEX 01 01:05:68
  TRACK 70 AUDIO
    TITLE "0:"
    INDEX 01 01:07:04
  TRACK 71 AUDIO
    TITLE "2:cjc143_0620"
    INDEX 01 01:07:55
  TRACK 72 AUDIO
    TITLE "0:"
    INDEX 01 01:09:20
  TRACK 73 AUDIO
    TITLE "2:cjc143_0621"
    INDEX 01 01:09:61
  TRACK 74 AUDIO
    TITLE "0:"
    INDEX 01 01:11:27
  TRACK 75 AUDIO
    TITLE "2:cjc143_0622"
    INDEX 01 01:11:70
  TRACK 76 AUDIO
    TITLE "0:"
    INDEX 01 01:13:02
  TRACK 77 AUDIO
    TITLE "2:cjc143_0623"
    INDEX 01 01:13:53
  TRACK 78 AUDIO
    TITLE "0:"
    INDEX 01 01:14:59
  TRACK 79 AUDIO
    TITLE "2:cjc143_0624"
    INDEX 01 01:15:35
  TRACK 80 AUDIO
    TITLE "0:"
    INDEX 01 01:17:02
  TRACK 81 AUDIO
    TITLE "2:cjc143_0625"
    INDEX 01 01:17:57
  TRACK 82 AUDIO
    TITLE "0:"
    INDEX 01 01:19:21
  TRACK 83 AUDIO
    TITLE "2:cjc143_0626"
    INDEX 01 01:19:64
  TRACK 84 AUDIO
    TITLE "0:"
    INDEX 01 01:21:14
  TRACK 85 AUDIO
    TITLE "2:cjc143_0627"
    INDEX 01 01:21:65
  TRACK 86 AUDIO
    TITLE "0:"
    INDEX 01 01:23:16
  TRACK 87 AUDIO
    TITLE "2:cjc143_0628"
    INDEX 01 01:23:67
  TRACK 88 AUDIO
    TITLE "0:"
    INDEX 01 01:25:13
  TRACK 89 AUDIO
    TITLE "2:cjc143_0629"
    INDEX 01 01:25:58
  TRACK 90 AUDIO
    TITLE "0:"
    INDEX 01 01:27:20
  TRACK 91 AUDIO
    TITLE "2:cjc143_0630"
    INDEX 01 01:27:69
  TRACK 92 AUDIO
    TITLE "0:"
    INDEX 01 01:29:11
  TRACK 93 AUDIO
    TITLE "2:cjc143_0631"
    INDEX 01 01:29:62
  TRACK 94 AUDIO
    TITLE "0:"
    INDEX 01 01:31:08
  TRACK 95 AUDIO
    TITLE "2:cjc143_0632"
    INDEX 01 01:31:59
  TRACK 96 AUDIO
    TITLE "0:"
    INDEX 01 01:33:15
